<svg width="16" height="16" viewBox="0 0 16 16" fill="none" xmlns="http://www.w3.org/2000/svg">
<path fill-rule="evenodd" clip-rule="evenodd" d="M4.2327 6.13539C4.91313 6.13539 5.46474 5.65792 5.46474 5.06827C5.46474 4.4781 4.91313 4 4.2327 4C3.55161 4 3 4.4781 3 5.06827C3 5.65792 3.55161 6.13539 4.2327 6.13539ZM3.28239 13H5.49301V6.94839H3.28239V13ZM9.76873 8.26157C8.94158 8.26157 8.59566 8.94022 8.59566 9.63421V12.9227H6.38866V6.87109H8.59566V7.6858C9.17637 6.97408 9.68098 6.68035 10.5959 6.68035C11.5115 6.68035 13 7.0924 13 9.4825V12.9227H10.7993V9.61762C10.7993 8.94022 10.5959 8.26157 9.76873 8.26157Z" fill="white"/>
</svg>
