<svg width="16" height="16" viewBox="0 0 16 16" fill="none" xmlns="http://www.w3.org/2000/svg">
<path fill-rule="evenodd" clip-rule="evenodd" d="M12.6869 4.19975C12.3673 4.40591 11.6334 4.70548 11.2715 4.70548V4.70609C10.8583 4.27138 10.2765 4 9.63131 4C8.37817 4 7.36201 5.02326 7.36201 6.28468C7.36201 6.45994 7.38218 6.63089 7.41946 6.79483H7.41909C5.71922 6.74991 3.8601 5.89194 2.74091 4.42351C2.0528 5.62289 2.64827 6.9568 3.42914 7.44283C3.16184 7.46314 2.66978 7.41182 2.43817 7.18425C2.42264 7.98031 2.80276 9.03508 4.18876 9.41772C3.92182 9.56234 3.44931 9.52086 3.24386 9.49009C3.31597 10.1621 4.25048 11.0406 5.27238 11.0406C4.90816 11.4649 3.5378 12.2343 2 11.9895C3.04439 12.6294 4.2616 13 5.54994 13C9.21111 13 12.0544 10.0121 11.9013 6.32603C11.9007 6.32197 11.9007 6.31791 11.9004 6.31348C11.9007 6.304 11.9013 6.29452 11.9013 6.28468C11.9013 6.27323 11.9004 6.2624 11.9 6.25132C12.2333 6.02178 12.6805 5.61575 13 5.08135C12.8147 5.18412 12.2588 5.38991 11.7416 5.44098C12.0736 5.26055 12.5654 4.66966 12.6869 4.19975" fill="white"/>
</svg>
