<svg width="66" height="44" viewBox="0 0 66 44" fill="none" xmlns="http://www.w3.org/2000/svg">
<path fill-rule="evenodd" clip-rule="evenodd" d="M0 29.336C0 13.1581 13.5245 0 30.154 0C31.3425 0 32.3125 0.930553 32.3125 2.086C32.3125 3.25449 31.3425 4.18504 30.154 4.18504C19.7849 4.18504 10.8246 10.1627 6.70761 18.7577C8.83252 17.4915 11.329 16.7597 13.9986 16.7597C21.7182 16.7597 27.9988 22.8694 27.9988 30.3791C27.9988 37.8903 21.7182 44 13.9986 44C6.27892 44 0 37.8903 0 30.3791C0 30.1134 0.0100861 29.8494 0.0252151 29.5854C0.0151291 29.5039 0 29.4208 0 29.336ZM63.8431 0C65.0435 0 66 0.930553 66 2.086C66 3.25449 65.0435 4.18504 63.8431 4.18504C53.4775 4.18504 44.5239 10.1595 40.4102 18.7496C42.5318 17.4882 45.0232 16.7597 47.6877 16.7597C55.4074 16.7597 61.6981 22.8694 61.6981 30.3791C61.6981 37.8903 55.4074 44 47.6877 44C39.9664 44 33.6875 37.8903 33.6875 30.3791C33.6875 30.1134 33.6976 29.8478 33.7127 29.5838C33.7026 29.5006 33.6875 29.4208 33.6875 29.336C33.6875 13.1581 47.2137 0 63.8431 0Z" fill="#FF6846"/>
</svg>
