<svg width="73" height="22" viewBox="0 0 73 22" fill="none" xmlns="http://www.w3.org/2000/svg">
<path fill-rule="evenodd" clip-rule="evenodd" d="M73 21.7221V0H69.0531V21.7221H73ZM19.8912 1.63957C18.1608 1.10179 16.2653 0.833684 14.2099 0.833684C12.1548 0.833684 10.254 1.10166 8.51228 1.63903C6.77029 2.17648 5.26225 2.92694 3.99377 3.88925C2.72578 4.85118 1.74205 5.97625 1.04552 7.26051C0.348203 8.54622 0 9.93317 0 11.4168C0 12.9005 0.348203 14.2875 1.04552 15.5732C1.74205 16.8574 2.72578 17.9825 3.99377 18.9444C5.26225 19.9067 6.77029 20.6572 8.51228 21.1947C10.254 21.732 12.1548 22 14.2099 22C16.2653 22 18.1608 21.7319 19.8912 21.1941C21.6197 20.6569 23.1261 19.9073 24.4053 18.9464C25.6864 17.9842 26.6771 16.8584 27.3742 15.5732C28.0715 14.2875 28.4197 12.9005 28.4197 11.4168C28.4197 9.93317 28.0715 8.54622 27.3742 7.26051C26.6771 5.97527 25.6864 4.8495 24.4053 3.88723C23.1261 2.9264 21.6197 2.17674 19.8912 1.63957ZM59.2106 6.42389C58.2105 5.91963 57.074 5.66905 55.8072 5.66905C54.2227 5.66905 52.805 6.0164 51.5632 6.7136C50.3196 7.41175 49.3402 8.37424 48.6334 9.59417C47.9252 10.8164 47.5723 12.2242 47.5723 13.8067C47.5723 15.3845 47.9092 16.7968 48.5853 18.0343C49.2625 19.274 50.1996 20.2486 51.3892 20.9496C52.5788 21.6505 53.9366 22 55.4525 22C56.3692 22 57.2276 21.8601 58.0255 21.5792C58.8117 21.3024 59.5102 20.9441 60.1195 20.5037L60.4133 20.2819L60.559 20.1601V21.7221H64.5059V5.97474H60.559V7.25189L60.533 7.23164L60.2305 7.01735C59.9186 6.8072 59.5786 6.60945 59.2106 6.42389ZM29.2746 5.97474H33.6797L38.3177 16.1457L43.1085 5.97474H47.3863L39.6708 21.7221H36.725L29.2746 5.97474ZM56.1073 9.46695C55.2002 9.46695 54.4082 9.66139 53.7223 10.0477C53.0374 10.4335 52.5118 10.9485 52.1366 11.5989C51.7615 12.2493 51.5738 12.9816 51.5738 13.8067C51.5738 14.6699 51.7621 15.4208 52.1366 16.0701C52.5118 16.7206 53.0374 17.2356 53.7223 17.6213C54.4082 18.0077 55.2002 18.2021 56.1073 18.2021C57.0144 18.2021 57.8065 18.0077 58.4924 17.6213C59.1787 17.2348 59.7099 16.7182 60.0943 16.0655C60.4763 15.4171 60.6681 14.668 60.6681 13.8067C60.6681 12.9835 60.4769 12.2529 60.0943 11.6035C59.7099 10.9509 59.1787 10.4342 58.4924 10.0477C57.8065 9.66139 57.0144 9.46695 56.1073 9.46695ZM11.2766 5.76596C12.5483 5.19614 14.0375 4.90947 15.7559 4.90947C17.4277 4.90947 18.9001 5.19602 20.1851 5.76697C21.4703 6.33804 22.4704 7.10854 23.1959 8.08499C23.9194 9.05884 24.2818 10.1658 24.2818 11.4168C24.2818 12.6496 23.9193 13.7526 23.1945 14.7367C22.4689 15.7217 21.4693 16.4961 20.1851 17.0667C18.9001 17.6377 17.4277 17.9242 15.7559 17.9242C14.0375 17.9242 12.5483 17.6375 11.2766 17.0677C10.0035 16.4973 9.0151 15.7276 8.30084 14.7519C7.58742 13.7774 7.22997 12.6692 7.22997 11.4168C7.22997 10.1644 7.58742 9.05629 8.30084 8.08176C9.0151 7.10609 10.0035 6.33641 11.2766 5.76596Z" fill="black"/>
</svg>
